<svg xmlns="http://www.w3.org/2000/svg" viewBox="0 0 16 16"><path d="M15.383 11.213l-.885 1.572a1 1 0 01-1.471.309l-3.702-2.777.548 4.563A1 1 0 018.881 16H7.12a1 1 0 01-.993-1.12l.549-4.562-3.703 2.776a1 1 0 01-1.471-.31l-.885-1.571a1 1 0 01.507-1.422l4.377-1.716L1.09 6.24a1 1 0 01-.49-1.41l.888-1.596a.999.999 0 011.498-.294l3.712 2.976-.572-4.798A1.001 1.001 0 017.118 0h1.763a1 1 0 01.993 1.118l-.572 4.799 3.711-2.976a1 1 0 011.5.294L15.4 4.83a1 1 0 01-.49 1.409l-4.413 1.834 4.377 1.717a1 1 0 01.508 1.422z" fill="#A9A6A1"/></svg>